<svg width="165" height="20" viewBox="0 0 165 20" fill="none" xmlns="http://www.w3.org/2000/svg">
<path d="M20.0843 15.8183H23.8358V19.8244H20.0843V15.8183Z" fill="#FF6816"/>
<path d="M4.48387 15.8183H17.7137V19.8244H4.48387V15.8183Z" fill="white"/>
<path d="M27.7844 0.214172H0.732819V4.36083H6.54797C5.32948 6.0963 4.59732 8.246 4.59732 10.5812V12.655H8.46182V10.5812C8.46182 7.15112 11.0615 4.36083 14.2582 4.36083C17.4558 4.36083 20.0549 7.15112 20.0549 10.5812V12.655H23.9197V10.5812C23.9197 8.246 23.1874 6.0963 21.9693 4.36083H27.7844V0.214172Z" fill="white"/>
<path d="M52.2703 19.749L45.1853 11.0739V19.749H41.2801V0.27894H45.1853V9.00976L52.2703 0.27894H56.9844L48.9509 9.93026L57.2076 19.749H52.2703Z" fill="white"/>
<path d="M73.5838 11.6876C73.5838 12.2455 73.5466 12.7476 73.4722 13.1939H62.1751C62.2681 14.3096 62.6586 15.1836 63.3467 15.8159C64.0347 16.4482 64.8808 16.7643 65.885 16.7643C67.3355 16.7643 68.3676 16.1413 68.9812 14.8954H73.1932C72.7469 16.3831 71.8915 17.6104 70.627 18.5774C69.3625 19.5258 67.8097 20 65.9687 20C64.481 20 63.1421 19.6746 61.952 19.0237C60.7804 18.3543 59.8599 17.4152 59.1904 16.2064C58.5396 14.9977 58.2142 13.603 58.2142 12.0223C58.2142 10.4231 58.5396 9.01906 59.1904 7.81032C59.8413 6.60158 60.7525 5.67178 61.9241 5.02092C63.0956 4.37006 64.4438 4.04463 65.9687 4.04463C67.4378 4.04463 68.7488 4.36076 69.9017 4.99303C71.0733 5.62529 71.9752 6.5272 72.6075 7.69874C73.2583 8.8517 73.5838 10.1813 73.5838 11.6876ZM69.5391 10.5718C69.5205 9.56764 69.1579 8.76801 68.4513 8.17294C67.7446 7.55927 66.8799 7.25244 65.8571 7.25244C64.8901 7.25244 64.0719 7.54998 63.4024 8.14505C62.7516 8.72152 62.3518 9.53045 62.203 10.5718H69.5391Z" fill="white"/>
<path d="M90.0743 6.30404C90.0743 7.34542 89.8233 8.32171 89.3212 9.23291C88.8377 10.1441 88.066 10.8787 87.006 11.4365C85.9646 11.9944 84.6443 12.2734 83.045 12.2734H79.7814V19.749H75.8763V0.27894H83.045C84.5513 0.27894 85.8344 0.539284 86.8944 1.05997C87.9544 1.58066 88.7447 2.29661 89.2654 3.20781C89.8047 4.11901 90.0743 5.15109 90.0743 6.30404ZM82.8777 9.12134C83.9562 9.12134 84.7559 8.87959 85.2766 8.39609C85.7973 7.894 86.0576 7.19665 86.0576 6.30404C86.0576 4.40725 84.9976 3.45885 82.8777 3.45885H79.7814V9.12134H82.8777Z" fill="white"/>
<path d="M99.0115 19.9442C97.654 19.9442 96.4267 19.7118 95.3295 19.2469C94.251 18.782 93.3955 18.1125 92.7633 17.2385C92.131 16.3645 91.8056 15.3324 91.787 14.1423H95.9711C96.0269 14.9419 96.3058 15.5742 96.8079 16.0391C97.3286 16.504 98.0352 16.7364 98.9279 16.7364C99.8391 16.7364 100.555 16.5225 101.076 16.0948C101.596 15.6485 101.857 15.0721 101.857 14.3654C101.857 13.7889 101.68 13.3147 101.327 12.9428C100.973 12.5709 100.527 12.2827 99.9878 12.0781C99.4671 11.855 98.7419 11.6132 97.8121 11.3529C96.5476 10.9809 95.5155 10.6183 94.7159 10.265C93.9348 9.89307 93.2561 9.34449 92.6796 8.61925C92.1217 7.87541 91.8428 6.88982 91.8428 5.66248C91.8428 4.50953 92.131 3.50535 92.7075 2.64993C93.284 1.79451 94.0929 1.14365 95.1343 0.697349C96.1756 0.23245 97.3658 0 98.7047 0C100.713 0 102.34 0.492794 103.586 1.47838C104.851 2.44537 105.548 3.80288 105.678 5.55091H101.383C101.345 4.88145 101.057 4.33287 100.518 3.90516C99.9971 3.45886 99.2998 3.2357 98.4258 3.2357C97.6633 3.2357 97.0497 3.43096 96.5848 3.82148C96.1384 4.21199 95.9153 4.77917 95.9153 5.52301C95.9153 6.0437 96.0827 6.48071 96.4174 6.83403C96.7707 7.16876 97.1984 7.4477 97.7005 7.67085C98.2212 7.87541 98.9464 8.11715 99.8762 8.39609C101.141 8.76801 102.173 9.13993 102.972 9.51185C103.772 9.88377 104.46 10.4417 105.037 11.1855C105.613 11.9293 105.901 12.9056 105.901 14.1144C105.901 15.1557 105.632 16.1227 105.092 17.0153C104.553 17.9079 103.763 18.6239 102.721 19.1632C101.68 19.6839 100.443 19.9442 99.0115 19.9442Z" fill="white"/>
<path d="M112.634 16.6527H119.05V19.749H108.729V0.27894H112.634V16.6527Z" fill="white"/>
<path d="M132.913 16.0391H125.158L123.875 19.749H119.775L126.776 0.251044H131.323L138.324 19.749H134.196L132.913 16.0391ZM131.853 12.9149L129.035 4.76987L126.218 12.9149H131.853Z" fill="white"/>
<path d="M142.113 19.9442C141.406 19.9442 140.82 19.7304 140.355 19.3027C139.909 18.8563 139.686 18.3078 139.686 17.6569C139.686 17.006 139.909 16.4668 140.355 16.0391C140.82 15.5927 141.406 15.3696 142.113 15.3696C142.801 15.3696 143.368 15.5927 143.814 16.0391C144.261 16.4668 144.484 17.006 144.484 17.6569C144.484 18.3078 144.261 18.8563 143.814 19.3027C143.368 19.7304 142.801 19.9442 142.113 19.9442Z" fill="white"/>
<path d="M155.649 16.9384H149.775L148.802 19.749H145.696L151 4.97781H154.445L159.749 19.749H156.621L155.649 16.9384ZM154.846 14.5717L152.712 8.40117L150.578 14.5717H154.846Z" fill="#FF6816"/>
<path d="M164.267 4.99894V19.749H161.309V4.99894H164.267Z" fill="#FF6816"/>
</svg>
