<svg width="20" height="20" viewBox="0 0 20 20" fill="none" xmlns="http://www.w3.org/2000/svg">
<path fill-rule="evenodd" clip-rule="evenodd" d="M4.99148 3.59099C4.99148 3.96912 4.84127 4.33176 4.57389 4.59913C4.30652 4.86651 3.94388 5.01672 3.56575 5.01672C3.18763 5.01672 2.82499 4.86651 2.55761 4.59913C2.29024 4.33176 2.14003 3.96912 2.14003 3.59099C2.14003 3.21287 2.29024 2.85023 2.55761 2.58285C2.82499 2.31547 3.18763 2.16526 3.56575 2.16526C3.94388 2.16526 4.30652 2.31547 4.57389 2.58285C4.84127 2.85023 4.99148 3.21287 4.99148 3.59099ZM4.63505 6.99278C5.4478 6.73729 6.14221 6.19925 6.59257 5.47606C7.04293 4.75287 7.21947 3.89233 7.09023 3.05023C6.96099 2.20814 6.53452 1.44014 5.88801 0.885287C5.24151 0.330434 4.41771 0.0253951 3.56575 0.0253951C2.7138 0.0253951 1.89 0.330434 1.24349 0.885287C0.596987 1.44014 0.170512 2.20814 0.0412736 3.05023C-0.0879644 3.89233 0.0885775 4.75287 0.538938 5.47606C0.989298 6.19925 1.68371 6.73729 2.49646 6.99278V13.5711C2.49646 14.6109 2.90954 15.6082 3.64482 16.3435C4.3801 17.0788 5.37736 17.4918 6.41721 17.4918H7.31399L6.6439 18.1619C6.54182 18.2606 6.46041 18.3786 6.40443 18.5091C6.34846 18.6396 6.31902 18.7799 6.31786 18.9219C6.31669 19.0639 6.34381 19.2047 6.39764 19.3361C6.45147 19.4675 6.53092 19.5868 6.63137 19.6872C6.73181 19.7875 6.85124 19.8669 6.98268 19.9206C7.11411 19.9743 7.25493 20.0013 7.39691 20C7.53889 19.9987 7.67919 19.9691 7.80962 19.913C7.94005 19.8569 8.058 19.7754 8.15659 19.6732L10.6516 17.1782L11.4073 16.4225L10.6516 15.6669L8.15659 13.1719C8.05758 13.072 7.93977 12.9927 7.80995 12.9386C7.68013 12.8845 7.54089 12.8567 7.40025 12.8567C7.25961 12.8567 7.12036 12.8845 6.99054 12.9386C6.86073 12.9927 6.74291 13.072 6.6439 13.1719C6.44365 13.3724 6.33118 13.6442 6.33118 13.9275C6.33118 14.2109 6.44365 14.4827 6.6439 14.6832L7.31399 15.3532H6.41721C5.43346 15.3532 4.63505 14.5548 4.63505 13.5711V6.99278ZM11.8065 0.340333C11.9044 0.235276 12.0224 0.151012 12.1536 0.0925686C12.2847 0.0341253 12.4263 0.00269962 12.5699 0.000166412C12.7135 -0.0023668 12.8561 0.0240444 12.9892 0.0778243C13.1224 0.131604 13.2433 0.211651 13.3449 0.313189C13.4464 0.414728 13.5265 0.535678 13.5802 0.668824C13.634 0.80197 13.6604 0.944584 13.6579 1.08816C13.6554 1.23173 13.6239 1.37333 13.5655 1.50449C13.507 1.63566 13.4228 1.75371 13.3177 1.8516L12.6476 2.5217H13.5458C14.5857 2.5217 15.583 2.93477 16.3182 3.67006C17.0535 4.40534 17.4666 5.4026 17.4666 6.44245V13.0208C18.2793 13.2762 18.9738 13.8143 19.4241 14.5375C19.8745 15.2607 20.051 16.1212 19.9218 16.9633C19.7925 17.8054 19.3661 18.5734 18.7196 19.1282C18.0731 19.6831 17.2493 19.9881 16.3973 19.9881C15.5453 19.9881 14.7215 19.6831 14.075 19.1282C13.4285 18.5734 13.0021 17.8054 12.8728 16.9633C12.7436 16.1212 12.9201 15.2607 13.3705 14.5375C13.8208 13.8143 14.5153 13.2762 15.328 13.0208V6.44245C15.328 5.45869 14.5296 4.66029 13.5458 4.66029H12.6476L13.3177 5.33038C13.4228 5.42827 13.507 5.54632 13.5655 5.67749C13.6239 5.80866 13.6554 5.95025 13.6579 6.09382C13.6604 6.2374 13.634 6.38001 13.5802 6.51316C13.5265 6.64631 13.4464 6.76726 13.3449 6.86879C13.2433 6.97033 13.1224 7.05038 12.9892 7.10416C12.8561 7.15794 12.7135 7.18435 12.5699 7.18182C12.4263 7.17928 12.2847 7.14786 12.1536 7.08942C12.0224 7.03097 11.9044 6.94671 11.8065 6.84165L9.31143 4.34663L8.5558 3.59099L9.31143 2.83536L11.8065 0.340333ZM16.3973 17.8483C16.7754 17.8483 17.1381 17.6981 17.4054 17.4307C17.6728 17.1633 17.823 16.8007 17.823 16.4225C17.823 16.0444 17.6728 15.6818 17.4054 15.4144C17.1381 15.147 16.7754 14.9968 16.3973 14.9968C16.0192 14.9968 15.6565 15.147 15.3892 15.4144C15.1218 15.6818 14.9716 16.0444 14.9716 16.4225C14.9716 16.8007 15.1218 17.1633 15.3892 17.4307C15.6565 17.6981 16.0192 17.8483 16.3973 17.8483Z" fill="white"/>
</svg>
