<svg width="20" height="20" viewBox="0 0 20 20" fill="none" xmlns="http://www.w3.org/2000/svg">
<path fill-rule="evenodd" clip-rule="evenodd" d="M2.15054 9.08492C2.13733 8.16581 2.30695 7.25325 2.64954 6.40028C2.99213 5.5473 3.50086 4.77094 4.14615 4.11631C4.79144 3.46168 5.56041 2.94186 6.40837 2.58704C7.25634 2.23223 8.16637 2.04952 9.08557 2.04952C10.0048 2.04952 10.9148 2.23223 11.7628 2.58704C12.6107 2.94186 13.3797 3.46168 14.025 4.11631C14.6703 4.77094 15.179 5.5473 15.5216 6.40028C15.8642 7.25325 16.0338 8.16581 16.0206 9.08492C15.9944 10.9069 15.2523 12.6455 13.9545 13.9247C12.6568 15.2039 10.9078 15.921 9.08557 15.921C7.26336 15.921 5.51434 15.2039 4.21661 13.9247C2.91889 12.6455 2.17672 10.9069 2.15054 9.08492ZM9.08486 1.02895e-07C7.6517 -0.000215591 6.23883 0.338684 4.96171 0.989001C3.6846 1.63932 2.57948 2.5826 1.73668 3.74175C0.893885 4.9009 0.337323 6.24302 0.112483 7.65843C-0.112358 9.07384 0.000904981 10.5224 0.443014 11.8856C0.885123 13.2489 1.64353 14.4882 2.65626 15.5022C3.66898 16.5163 4.90728 17.2764 6.26996 17.7203C7.63263 18.1642 9.08101 18.2793 10.4967 18.0564C11.9124 17.8334 13.2553 17.2786 14.4155 16.4373L17.5584 19.5802C17.8269 19.8489 18.1911 19.9999 18.5709 20C18.9507 20.0001 19.315 19.8494 19.5837 19.5809C19.8524 19.3124 20.0034 18.9482 20.0035 18.5684C20.0036 18.1886 19.8529 17.8243 19.5844 17.5556L16.4401 14.4127C17.4219 13.0571 18.0099 11.4566 18.1395 9.7879C18.269 8.11917 17.9349 6.4471 17.1742 4.95624C16.4134 3.46537 15.2555 2.21369 13.8283 1.33935C12.4011 0.465003 10.76 0.00199678 9.08629 0.00143193L9.08486 1.02895e-07ZM8.01815 5.76452C8.10127 5.84762 8.16721 5.94628 8.2122 6.05487C8.25718 6.16346 8.28034 6.27985 8.28034 6.39739C8.28034 6.51493 8.25718 6.63131 8.2122 6.7399C8.16721 6.84849 8.10127 6.94715 8.01815 7.03025L5.78737 9.26247L8.01815 11.4932C8.18599 11.6611 8.28029 11.8887 8.28029 12.1261C8.28029 12.3635 8.18599 12.5911 8.01815 12.759C7.8503 12.9268 7.62265 13.0211 7.38528 13.0211C7.14791 13.0211 6.92026 12.9268 6.75242 12.759L3.88877 9.89533C3.80565 9.81223 3.73971 9.71357 3.69472 9.60498C3.64973 9.49639 3.62658 9.38 3.62658 9.26247C3.62658 9.14493 3.64973 9.02854 3.69472 8.91995C3.73971 8.81136 3.80565 8.7127 3.88877 8.6296L6.75242 5.76595C6.83552 5.68283 6.93418 5.61689 7.04277 5.5719C7.15136 5.52692 7.26774 5.50376 7.38528 5.50376C7.50282 5.50376 7.61921 5.52692 7.7278 5.5719C7.83638 5.61689 7.93505 5.6814 8.01815 5.76452ZM11.5977 5.76452C11.4299 5.59667 11.2022 5.50238 10.9648 5.50238C10.7275 5.50238 10.4998 5.59667 10.332 5.76452C10.1641 5.93237 10.0698 6.16002 10.0698 6.39739C10.0698 6.63476 10.1641 6.86241 10.332 7.03025L12.5628 9.26103L10.332 11.4932C10.1641 11.6611 10.0698 11.8887 10.0698 12.1261C10.0698 12.3635 10.1641 12.5911 10.332 12.759C10.4998 12.9268 10.7275 13.0211 10.9648 13.0211C11.2022 13.0211 11.4299 12.9268 11.5977 12.759L14.4614 9.89533C14.5445 9.81223 14.6104 9.71357 14.6554 9.60498C14.7004 9.49639 14.7235 9.38 14.7235 9.26247C14.7235 9.14493 14.7004 9.02854 14.6554 8.91995C14.6104 8.81136 14.5445 8.7127 14.4614 8.6296L11.5977 5.76452Z" fill="white"/>
</svg>
