<svg width="9" height="10" viewBox="0 0 9 10" fill="none" xmlns="http://www.w3.org/2000/svg">
<path d="M6.16644 9.3765C6.18866 9.54315 6.13311 9.7209 6.00535 9.83755C5.95396 9.88905 5.89292 9.9299 5.82572 9.95778C5.75852 9.98565 5.68649 10 5.61374 10C5.54099 10 5.46895 9.98565 5.40175 9.95778C5.33455 9.9299 5.27351 9.88905 5.22212 9.83755L2.99465 7.61008C2.9341 7.55083 2.88806 7.47839 2.86011 7.39842C2.83217 7.31844 2.82308 7.23309 2.83356 7.14903V4.30497L0.172808 0.899878C0.0826027 0.784077 0.0419002 0.637279 0.0595945 0.491561C0.0772889 0.345843 0.151941 0.213052 0.26724 0.122206C0.372781 0.0444384 0.489432 0 0.611637 0H8.38836C8.51056 0 8.62722 0.0444384 8.73276 0.122206C8.84805 0.213052 8.92271 0.345843 8.9404 0.491561C8.9581 0.637279 8.91739 0.784077 8.82719 0.899878L6.16644 4.30497V9.3765ZM1.74482 1.11096L3.94452 3.92169V6.98794L5.05548 8.0989V3.91614L7.25518 1.11096H1.74482Z" fill="white"/>
</svg>
