<svg width="20" height="16" viewBox="0 0 20 16" fill="none" xmlns="http://www.w3.org/2000/svg">
<path d="M16.6278 0C16.6413 0.00204587 16.5926 0.00384631 16.4923 0.00384631C15.7348 0.00384631 15.0283 0.824651 15.0283 1.94743C15.0283 2.51331 15.2211 3.01979 15.5039 3.37054L15.9219 3.88716L15.2647 3.98823C14.8326 4.05439 14.542 4.25141 14.298 4.57506C14.0541 4.89872 13.8748 5.35986 13.7559 5.8985C13.5437 6.85973 13.5272 8.0436 13.5257 9.09645H14.7712L14.7954 9.45325L15.0857 13.8148H17.7786L18.1072 9.44928L18.1341 9.0964H19.4434C19.4336 8.0578 19.3771 6.8896 19.1429 5.93553C19.0114 5.40008 18.8245 4.93902 18.5829 4.61083C18.3413 4.28267 18.0632 4.08504 17.6801 4.01372L17.0368 3.89354L17.4576 3.3923C17.7534 3.03947 17.9562 2.52739 17.9562 1.94738C17.9562 0.894169 17.322 0.0894864 16.6354 0.00126837L16.6277 4.0895e-05L16.6278 0ZM6.61329 0.138096C4.73517 0.138342 2.52792 0.357946 0 0.870724V1.65331C10.9666 0.11285 13.9752 3.21431 9.25758 4.89987C4.45685 6.61513 0.644328 15.2216 15.7801 15.9719C15.9586 15.9898 16.1422 16 16.3298 16C17.2415 16 18.0623 15.7769 18.6263 15.4438C19.1905 15.1107 19.469 14.7015 19.469 14.302C19.469 13.9024 19.1905 13.4933 18.6264 13.1601C18.617 13.1545 18.6066 13.149 18.597 13.1434L18.5152 14.2265L18.4883 14.5807H14.3697L14.3466 14.2227L14.2124 12.1973C8.96706 12.3118 7.53242 8.08464 10.9352 6.85875C11.7693 6.55825 12.4527 6.21078 12.9887 5.83459C12.9957 5.80095 13.0018 5.76687 13.0092 5.73352C13.1427 5.129 13.347 4.56745 13.6882 4.11474C13.8905 3.8462 14.1481 3.62087 14.4541 3.46129C14.3263 1.72038 11.658 0.137319 6.61325 0.138096H6.61329Z" fill="white"/>
</svg>
