<svg width="15" height="16" viewBox="0 0 15 16" fill="none" xmlns="http://www.w3.org/2000/svg">
<path d="M2.4 1.6V4.8H12V1.6H13.6056C14.044 1.6 14.4 1.956 14.4 2.3944V15.2056C14.3998 15.4162 14.316 15.6182 14.1671 15.7671C14.0182 15.916 13.8162 15.9998 13.6056 16H0.7944C0.583712 16 0.381653 15.9163 0.232674 15.7673C0.0836955 15.6183 0 15.4163 0 15.2056V2.3944C0 1.956 0.356 1.6 0.7944 1.6H2.4ZM4.8 12H3.2V13.6H4.8V12ZM4.8 9.6H3.2V11.2H4.8V9.6ZM4.8 7.2H3.2V8.8H4.8V7.2ZM10.4 0V3.2H4V0H10.4Z" fill="white"/>
</svg>
