<svg width="16" height="16" viewBox="0 0 16 16" fill="none" xmlns="http://www.w3.org/2000/svg">
<path d="M3.2 9.6H5.66L9.64 5.6C9.76 5.48 9.85013 5.3432 9.9104 5.1896C9.97067 5.036 10.0005 4.88613 10 4.74C9.99947 4.59387 9.9696 4.45067 9.9104 4.3104C9.8512 4.17013 9.76773 4.04 9.66 3.92L8.92 3.16C8.8 3.04 8.66667 2.95013 8.52 2.8904C8.37333 2.83067 8.22 2.80053 8.06 2.8C7.91333 2.8 7.76667 2.83013 7.62 2.8904C7.47333 2.95067 7.34 3.04053 7.22 3.16L3.2 7.14V9.6ZM8.04 5.52L7.28 4.78L8.06 4L8.8 4.76L8.04 5.52ZM7.36 9.6H12.8V8H8.96L7.36 9.6ZM0 16V1.6C0 1.16 0.1568 0.783467 0.4704 0.4704C0.784 0.157333 1.16053 0.000533333 1.6 0H14.4C14.84 0 15.2168 0.1568 15.5304 0.4704C15.844 0.784 16.0005 1.16053 16 1.6V11.2C16 11.64 15.8435 12.0168 15.5304 12.3304C15.2173 12.644 14.8405 12.8005 14.4 12.8H3.2L0 16Z" fill="white"/>
</svg>
