<svg width="28" height="28" viewBox="0 0 28 28" fill="none" xmlns="http://www.w3.org/2000/svg">
<path fill-rule="evenodd" clip-rule="evenodd" d="M16.4419 17.3553C15.2812 18.2828 13.8093 18.7307 12.3287 18.6068C10.8481 18.483 9.47104 17.7969 8.48046 16.6894C7.48988 15.5819 6.96093 14.1372 7.00225 12.6518C7.04357 11.1665 7.65202 9.75342 8.70265 8.70274C9.75327 7.65206 11.1663 7.04357 12.6515 7.00225C14.1368 6.96093 15.5814 7.48991 16.6888 8.48055C17.7962 9.47119 18.4823 10.8483 18.6062 12.329C18.73 13.8097 18.2822 15.2816 17.3547 16.4425L21.7945 20.8816C21.8579 20.9408 21.9088 21.0121 21.9441 21.0913C21.9794 21.1705 21.9984 21.256 21.9999 21.3428C22.0014 21.4295 21.9855 21.5156 21.953 21.596C21.9205 21.6765 21.8722 21.7495 21.8108 21.8108C21.7495 21.8722 21.6765 21.9205 21.5961 21.953C21.5156 21.9855 21.4295 22.0014 21.3428 21.9999C21.2561 21.9984 21.1706 21.9794 21.0913 21.9441C21.0121 21.9088 20.9408 21.8579 20.8817 21.7944L16.4419 17.3553ZM9.61784 16.0102C8.98584 15.3781 8.5554 14.5728 8.38091 13.6961C8.20642 12.8194 8.29571 11.9107 8.63751 11.0848C8.97931 10.2588 9.55826 9.55274 10.3012 9.05576C11.0442 8.55878 11.9178 8.29321 12.8116 8.29261C13.7054 8.29201 14.5794 8.5564 15.323 9.05238C16.0666 9.54836 16.6465 10.2537 16.9894 11.0791C17.3323 11.9046 17.4228 12.8132 17.2495 13.6902C17.0762 14.5671 16.6469 15.3729 16.0157 16.0059L16.0114 16.0102L16.0071 16.0136C15.159 16.8598 14.0097 17.3347 12.8118 17.3341C11.6138 17.3334 10.465 16.8573 9.61784 16.0102Z" fill="black"/>
<path fill-rule="evenodd" clip-rule="evenodd" d="M16.4419 17.3553C15.2812 18.2828 13.8093 18.7307 12.3287 18.6068C10.8481 18.483 9.47104 17.7969 8.48046 16.6894C7.48988 15.5819 6.96093 14.1372 7.00225 12.6518C7.04357 11.1665 7.65202 9.75342 8.70265 8.70274C9.75327 7.65206 11.1663 7.04357 12.6515 7.00225C14.1368 6.96093 15.5814 7.48991 16.6888 8.48055C17.7962 9.47119 18.4823 10.8483 18.6062 12.329C18.73 13.8097 18.2822 15.2816 17.3547 16.4425L21.7945 20.8816C21.8579 20.9408 21.9088 21.0121 21.9441 21.0913C21.9794 21.1705 21.9984 21.256 21.9999 21.3428C22.0014 21.4295 21.9855 21.5156 21.953 21.596C21.9205 21.6765 21.8722 21.7495 21.8108 21.8108C21.7495 21.8722 21.6765 21.9205 21.5961 21.953C21.5156 21.9855 21.4295 22.0014 21.3428 21.9999C21.2561 21.9984 21.1706 21.9794 21.0913 21.9441C21.0121 21.9088 20.9408 21.8579 20.8817 21.7944L16.4419 17.3553ZM9.61784 16.0102C8.98584 15.3781 8.5554 14.5728 8.38091 13.6961C8.20642 12.8194 8.29571 11.9107 8.63751 11.0848C8.97931 10.2588 9.55826 9.55274 10.3012 9.05576C11.0442 8.55878 11.9178 8.29321 12.8116 8.29261C13.7054 8.29201 14.5794 8.5564 15.323 9.05238C16.0666 9.54836 16.6465 10.2537 16.9894 11.0791C17.3323 11.9046 17.4228 12.8132 17.2495 13.6902C17.0762 14.5671 16.6469 15.3729 16.0157 16.0059L16.0114 16.0102L16.0071 16.0136C15.159 16.8598 14.0097 17.3347 12.8118 17.3341C11.6138 17.3334 10.465 16.8573 9.61784 16.0102Z" fill="black" fill-opacity="0.2"/>
<circle cx="13" cy="13" r="5" fill="#1C1C1C" fill-opacity="0.1"/>
</svg>
