<svg width="17" height="16" viewBox="0 0 17 16" fill="none" xmlns="http://www.w3.org/2000/svg">
<path fill-rule="evenodd" clip-rule="evenodd" d="M9.74191 0C11.5827 0.184981 13.3029 1.00066 14.611 2.30883C15.9192 3.61699 16.7349 5.33719 16.9199 7.17794H15.356C15.1432 7.17794 14.9393 7.26244 14.7888 7.41285C14.6384 7.56325 14.5539 7.76724 14.5539 7.97995C14.5539 8.19265 14.6384 8.39665 14.7888 8.54705C14.9393 8.69746 15.1432 8.78195 15.356 8.78195H16.9199C16.5181 12.8345 13.0983 16 8.93991 16C4.78151 16 1.36177 12.8345 0.959961 8.78195H2.52387C2.73658 8.78195 2.94057 8.69746 3.09097 8.54705C3.24138 8.39665 3.32588 8.19265 3.32588 7.97995C3.32588 7.76724 3.24138 7.56325 3.09097 7.41285C2.94057 7.26244 2.73658 7.17794 2.52387 7.17794H0.959961C1.14494 5.33719 1.96062 3.61699 3.26879 2.30883C4.57695 1.00066 6.29715 0.184981 8.13791 0V1.56391C8.13791 1.77661 8.2224 1.98061 8.37281 2.13101C8.52321 2.28142 8.7272 2.36591 8.93991 2.36591C9.15261 2.36591 9.35661 2.28142 9.50701 2.13101C9.65742 1.98061 9.74191 1.77661 9.74191 1.56391V0ZM13.5755 3.34436L9.69139 5.3213L9.39224 5.4793L8.90302 5.72792C8.32557 6.02466 7.7369 6.34707 7.295 6.78897C6.51625 7.56852 6.42161 8.86456 7.23886 9.681C8.0553 10.4982 9.35134 10.4036 10.1309 9.62486C10.5094 9.24632 10.8006 8.7603 11.0628 8.26466L11.4406 7.52762L11.7309 6.96782L13.5755 3.34436ZM9.87184 7.04802L9.78201 7.21644L9.69139 7.38967C9.52377 7.71208 9.34973 8.04892 9.13159 8.32962L8.99685 8.49002C8.77389 8.71298 8.4956 8.66967 8.37289 8.54697C8.26222 8.43629 8.2157 8.2005 8.37049 7.99198L8.42903 7.92381C8.68487 7.68802 9.00968 7.50195 9.3353 7.33033L9.53019 7.22847C9.64781 7.16805 9.7617 7.1079 9.87184 7.04802Z" fill="white"/>
</svg>
