<svg width="16" height="16" viewBox="0 0 16 16" fill="none" xmlns="http://www.w3.org/2000/svg">
<path d="M2.71802 1.53478C3.19665 1.53478 3.67529 1.64544 4.15393 1.79276C4.5959 1.93942 5.03788 2.16074 5.47985 2.38206C5.88516 2.60294 6.29025 2.8607 6.69511 3.15535L7.24775 3.59732C7.35774 3.67065 7.43173 3.74398 7.50506 3.81798C7.54239 3.85464 7.57839 3.89131 7.65239 3.92864L7.72572 4.0393L7.79971 4.11263H6.47379L6.58445 3.96597L6.69511 3.85531L6.91577 3.63399C7.06309 3.45 7.21041 3.30267 7.35774 3.15535C7.50801 3.00966 7.66792 2.87426 7.83638 2.75004C7.91037 2.67671 8.02103 2.60338 8.09436 2.56605L8.20502 2.45539L8.31568 2.34473C8.647 2.08741 9.01564 1.86609 9.38362 1.64477C9.75261 1.42715 10.1336 1.23062 10.5249 1.05614C11.2982 0.688163 12.1088 0.429512 12.9181 0.246189C13.324 0.17286 13.766 0.0988645 14.1713 0.0615334C14.5975 -0.00550701 15.0306 -0.0178282 15.4599 0.024869L14.9073 0.356183C14.834 0.393514 14.7233 0.466843 14.6493 0.503507C14.6126 0.540838 14.576 0.540838 14.5026 0.576836L14.3547 0.650832C14.0233 0.872152 13.6547 1.05614 13.3234 1.27746C12.6974 1.71877 12.0715 2.12408 11.4088 2.56605C10.7462 3.00802 10.1569 3.45 9.53094 3.89197L9.08897 4.22329C8.94164 4.33395 8.79432 4.44394 8.647 4.59126C8.49967 4.73859 8.35235 4.84925 8.20502 4.95991C8.13169 5.03324 8.0577 5.0699 7.9837 5.1439L7.79971 5.32789L6.98976 6.02784L6.47379 5.32789L6.43713 5.29122L6.40046 5.21789L6.2538 5.10723L6.03248 4.84925C5.89394 4.68181 5.7464 4.52203 5.59051 4.37061L4.70656 3.376C4.41191 3.04469 4.11726 2.71338 3.78595 2.41873C3.45622 2.09373 3.0989 1.79797 2.71802 1.53478ZM13.6547 9.52964C13.6572 8.72307 13.5073 7.9233 13.2127 7.17244L10.8929 8.16705C11.5555 10.0083 10.7822 12.0702 9.05164 12.9908L10.0456 15.3106C12.2554 14.2434 13.6547 11.9968 13.6547 9.52964ZM11.0775 4.37394L8.86765 5.99385C9.60427 6.36249 10.2302 6.95179 10.5989 7.65108L12.9187 6.65714C12.5134 5.77319 11.8875 4.99991 11.0775 4.37394ZM3.27065 9.52964C3.27482 8.85785 3.44926 8.19809 3.77767 7.61203C4.10608 7.02597 4.57773 6.53276 5.14854 6.1785L3.52863 4.22662C1.09678 5.88385 0.102838 9.01367 1.13411 11.7755L3.49064 10.7816C3.34605 10.3799 3.27208 9.95649 3.27065 9.52964ZM7.17308 13.4694C6.44613 13.466 5.73436 13.2611 5.11679 12.8776C4.49922 12.4941 4.00002 11.9469 3.67462 11.2969L1.35476 12.2915C2.79068 15.348 6.36313 16.7845 9.53028 15.5686L8.53567 13.2487C8.09679 13.3972 7.63638 13.4713 7.17308 13.4694Z" fill="white"/>
</svg>
