<svg width="21" height="20" viewBox="0 0 21 20" fill="none" xmlns="http://www.w3.org/2000/svg">
<path d="M0 8.88889H8.88889V0H0V8.88889ZM2.22222 2.22222H6.66667V6.66667H2.22222V2.22222ZM0 20H8.88889V11.1111H0V20ZM2.22222 13.3333H6.66667V17.7778H2.22222V13.3333ZM11.1111 0V8.88889H20V0H11.1111ZM17.7778 6.66667H13.3333V2.22222H17.7778V6.66667ZM11.1222 11.1111H13.3444V13.3333H11.1222V11.1111ZM13.3444 13.3333H15.5667V15.5556H13.3444V13.3333ZM11.1222 15.5556H13.3444V17.7778H11.1222V15.5556ZM15.5667 15.5556H17.7889V17.7778H15.5667V15.5556ZM17.7889 17.7778H20.0111V20H17.7889V17.7778ZM13.3444 17.7778H15.5667V20H13.3444V17.7778ZM15.5667 11.1111H17.7889V13.3333H15.5667V11.1111ZM17.7889 13.3333H20.0111V15.5556H17.7889V13.3333Z" fill="white"/>
</svg>
