<svg width="1165" height="585" viewBox="0 0 1165 585" fill="none" xmlns="http://www.w3.org/2000/svg">
<path d="M673.955 232.263H733.59V291.899H673.955V232.263Z" fill="#FF6816"/>
<path d="M425.999 232.263H636.29V291.899H425.999V232.263Z" fill="#263959"/>
<path d="M796.364 0H366.364V61.7271H458.8C439.431 87.5582 427.792 119.552 427.792 154.318V185.183H489.222V154.318C489.222 103.254 530.545 61.7271 581.363 61.7271C632.181 61.7271 673.507 103.254 673.507 154.318V185.183H734.935V154.318C734.935 119.552 723.298 87.5582 703.929 61.7271H796.364V0Z" fill="#263959"/>
<path d="M211.65 516L159.546 452.203V516H130.827V372.816H159.546V437.023L211.65 372.816H246.318L187.239 443.793L247.959 516H211.65Z" fill="#263959"/>
<path d="M368.391 456.716C368.391 460.819 368.117 464.511 367.57 467.793H284.491C285.174 475.999 288.046 482.426 293.106 487.076C298.166 491.726 304.389 494.05 311.773 494.05C322.44 494.05 330.03 489.469 334.543 480.306H365.519C362.236 491.247 355.946 500.273 346.646 507.384C337.347 514.359 325.928 517.846 312.389 517.846C301.448 517.846 291.602 515.453 282.849 510.666C274.234 505.743 267.464 498.837 262.541 489.948C257.755 481.059 255.361 470.802 255.361 459.178C255.361 447.417 257.755 437.091 262.541 428.202C267.328 419.313 274.029 412.475 282.644 407.689C291.26 402.902 301.175 400.509 312.389 400.509C323.193 400.509 332.834 402.834 341.313 407.484C349.928 412.133 356.561 418.766 361.211 427.382C365.997 435.861 368.391 445.639 368.391 456.716ZM338.646 448.511C338.509 441.126 335.843 435.245 330.646 430.869C325.449 426.356 319.09 424.1 311.568 424.1C304.457 424.1 298.44 426.288 293.516 430.664C288.73 434.903 285.79 440.852 284.696 448.511H338.646Z" fill="#263959"/>
<path d="M489.663 417.125C489.663 424.783 487.817 431.963 484.125 438.664C480.569 445.365 474.894 450.767 467.099 454.87C459.44 458.972 449.731 461.024 437.97 461.024H413.969V516H385.25V372.816H437.97C449.047 372.816 458.483 374.731 466.278 378.56C474.073 382.389 479.885 387.654 483.715 394.355C487.681 401.056 489.663 408.646 489.663 417.125ZM436.739 437.844C444.671 437.844 450.551 436.066 454.38 432.51C458.21 428.818 460.124 423.689 460.124 417.125C460.124 403.176 452.329 396.201 436.739 396.201H413.969V437.844H436.739Z" fill="#263959"/>
<path d="M555.388 517.436C545.405 517.436 536.379 515.726 528.31 512.307C520.379 508.889 514.088 503.965 509.438 497.538C504.788 491.11 502.395 483.52 502.258 474.768H533.029C533.439 480.648 535.49 485.298 539.183 488.717C543.012 492.136 548.209 493.845 554.773 493.845C561.474 493.845 566.739 492.273 570.568 489.127C574.397 485.845 576.312 481.606 576.312 476.409C576.312 472.169 575.013 468.682 572.414 465.947C569.816 463.212 566.534 461.092 562.568 459.588C558.739 457.947 553.405 456.169 546.567 454.254C537.268 451.519 529.678 448.853 523.798 446.254C518.054 443.519 513.062 439.485 508.823 434.151C504.72 428.681 502.669 421.433 502.669 412.407C502.669 403.928 504.788 396.543 509.028 390.252C513.267 383.962 519.216 379.175 526.875 375.893C534.533 372.474 543.285 370.765 553.132 370.765C567.901 370.765 579.868 374.389 589.03 381.637C598.33 388.748 603.458 398.731 604.415 411.586H572.825C572.551 406.663 570.431 402.629 566.466 399.483C562.636 396.201 557.508 394.56 551.08 394.56C545.473 394.56 540.96 395.996 537.542 398.868C534.259 401.74 532.618 405.911 532.618 411.381C532.618 415.21 533.849 418.424 536.311 421.023C538.909 423.484 542.055 425.536 545.747 427.177C549.576 428.681 554.91 430.459 561.747 432.51C571.047 435.245 578.637 437.98 584.517 440.716C590.398 443.451 595.458 447.553 599.697 453.024C603.937 458.494 606.056 465.674 606.056 474.563C606.056 482.221 604.074 489.332 600.108 495.897C596.142 502.461 590.329 507.726 582.671 511.692C575.013 515.521 565.918 517.436 555.388 517.436Z" fill="#263959"/>
<path d="M655.571 493.23H702.752V516H626.852V372.816H655.571V493.23Z" fill="#263959"/>
<path d="M804.7 488.717H747.673L738.237 516H708.082L759.571 372.611H793.008L844.497 516H814.137L804.7 488.717ZM796.905 465.742L776.187 405.843L755.468 465.742H796.905Z" fill="#263959"/>
<path d="M872.358 517.436C867.161 517.436 862.853 515.863 859.434 512.718C856.152 509.436 854.511 505.401 854.511 500.615C854.511 495.828 856.152 491.862 859.434 488.717C862.853 485.435 867.161 483.794 872.358 483.794C877.418 483.794 881.589 485.435 884.871 488.717C888.153 491.862 889.794 495.828 889.794 500.615C889.794 505.401 888.153 509.436 884.871 512.718C881.589 515.863 877.418 517.436 872.358 517.436Z" fill="#263959"/>
<path d="M971.906 495.331H928.703L921.555 516H898.71L937.717 407.372H963.048L1002.05 516H979.054L971.906 495.331ZM966 477.926L950.304 432.547L934.609 477.926H966Z" fill="#FF6816"/>
<path d="M1035.28 407.527V516H1013.53V407.527H1035.28Z" fill="#FF6816"/>
<path d="M3.95972 556.891V567.03H15.0121V570.294H3.95972V580.737H16.3175V584H0V553.628H16.3175V556.891H3.95972Z" fill="#FF6816"/>
<path d="M52.812 580.78H63.4292V584H48.8523V553.671H52.812V580.78Z" fill="#FF6816"/>
<path d="M98.1373 556.891V567.03H109.19V570.294H98.1373V580.737H110.495V584H94.1776V553.628H110.495V556.891H98.1373Z" fill="#FF6816"/>
<path d="M168.094 553.671L156.65 584H152.081L140.637 553.671H144.857L154.387 579.823L163.916 553.671H168.094Z" fill="#FF6816"/>
<path d="M216.906 577.256H203.678L201.241 584H197.064L208.029 553.845H212.598L223.52 584H219.343L216.906 577.256ZM215.775 574.036L210.292 558.719L204.809 574.036H215.775Z" fill="#FF6816"/>
<path d="M273.509 553.671V556.891H265.242V584H261.282V556.891H252.971V553.671H273.509Z" fill="#FF6816"/>
<path d="M308.887 556.891V567.03H319.939V570.294H308.887V580.737H321.244V584H304.927V553.628H321.244V556.891H308.887Z" fill="#FF6816"/>
<path d="M395.883 556.891V567.03H406.935V570.294H395.883V580.737H408.24V584H391.923V553.628H408.24V556.891H395.883Z" fill="#FF6816"/>
<path d="M465.839 553.671L454.395 584H449.826L438.382 553.671H442.603L452.132 579.823L461.662 553.671H465.839Z" fill="#FF6816"/>
<path d="M500.684 556.891V567.03H511.736V570.294H500.684V580.737H513.041V584H496.724V553.628H513.041V556.891H500.684Z" fill="#FF6816"/>
<path d="M561.546 584L554.322 571.599H549.536V584H545.576V553.671H555.367C557.658 553.671 559.588 554.063 561.154 554.846C562.75 555.63 563.939 556.688 564.722 558.023C565.505 559.357 565.897 560.88 565.897 562.592C565.897 564.68 565.288 566.522 564.069 568.118C562.88 569.713 561.081 570.772 558.674 571.294L566.289 584H561.546ZM549.536 568.422H555.367C557.513 568.422 559.123 567.9 560.197 566.856C561.27 565.783 561.807 564.361 561.807 562.592C561.807 560.793 561.27 559.401 560.197 558.414C559.152 557.428 557.542 556.935 555.367 556.935H549.536V568.422Z" fill="#FF6816"/>
<path d="M619.827 553.671L609.95 572.556V584H605.99V572.556L596.069 553.671H600.464L607.948 569.032L615.432 553.671H619.827Z" fill="#FF6816"/>
<path d="M692.651 556.891V567.03H703.703V570.294H692.651V580.737H705.008V584H688.691V553.628H705.008V556.891H692.651Z" fill="#FF6816"/>
<path d="M749.945 568.858L759.256 584H754.775L747.508 572.165L740.589 584H736.194L745.463 568.858L736.151 553.671H740.589L747.899 565.551L754.862 553.671H759.3L749.945 568.858Z" fill="#FF6816"/>
<path d="M811.39 562.548C811.39 565.072 810.519 567.175 808.779 568.858C807.067 570.511 804.442 571.338 800.903 571.338H795.072V584H791.112V553.671H800.903C804.326 553.671 806.922 554.498 808.692 556.152C810.49 557.805 811.39 559.937 811.39 562.548ZM800.903 568.074C803.107 568.074 804.732 567.596 805.776 566.638C806.821 565.681 807.343 564.318 807.343 562.548C807.343 558.806 805.196 556.935 800.903 556.935H795.072V568.074H800.903Z" fill="#FF6816"/>
<path d="M846.814 556.891V567.03H857.866V570.294H846.814V580.737H859.172V584H842.854V553.628H859.172V556.891H846.814Z" fill="#FF6816"/>
<path d="M907.676 584L900.453 571.599H895.666V584H891.706V553.671H901.497C903.789 553.671 905.718 554.063 907.284 554.846C908.88 555.63 910.069 556.688 910.852 558.023C911.636 559.357 912.027 560.88 912.027 562.592C912.027 564.68 911.418 566.522 910.2 568.118C909.01 569.713 907.212 570.772 904.804 571.294L912.419 584H907.676ZM895.666 568.422H901.497C903.644 568.422 905.254 567.9 906.327 566.856C907.4 565.783 907.937 564.361 907.937 562.592C907.937 560.793 907.4 559.401 906.327 558.414C905.283 557.428 903.673 556.935 901.497 556.935H895.666V568.422Z" fill="#FF6816"/>
<path d="M948.683 553.671V584H944.723V553.671H948.683Z" fill="#FF6816"/>
<path d="M985.934 556.891V567.03H996.987V570.294H985.934V580.737H998.292V584H981.975V553.628H998.292V556.891H985.934Z" fill="#FF6816"/>
<path d="M1054.67 584H1050.71L1034.79 559.85V584H1030.83V553.628H1034.79L1050.71 577.734V553.628H1054.67V584Z" fill="#FF6816"/>
<path d="M1086.49 568.814C1086.49 565.855 1087.15 563.201 1088.49 560.851C1089.82 558.472 1091.63 556.616 1093.93 555.281C1096.25 553.947 1098.81 553.28 1101.63 553.28C1104.94 553.28 1107.82 554.078 1110.29 555.673C1112.75 557.269 1114.55 559.531 1115.68 562.461H1110.94C1110.1 560.634 1108.88 559.227 1107.29 558.24C1105.72 557.254 1103.83 556.761 1101.63 556.761C1099.51 556.761 1097.61 557.254 1095.93 558.24C1094.25 559.227 1092.93 560.634 1091.97 562.461C1091.01 564.26 1090.53 566.377 1090.53 568.814C1090.53 571.222 1091.01 573.339 1091.97 575.167C1092.93 576.966 1094.25 578.358 1095.93 579.344C1097.61 580.331 1099.51 580.824 1101.63 580.824C1103.83 580.824 1105.72 580.345 1107.29 579.388C1108.88 578.402 1110.1 576.995 1110.94 575.167H1115.68C1114.55 578.068 1112.75 580.316 1110.29 581.912C1107.82 583.478 1104.94 584.261 1101.63 584.261C1098.81 584.261 1096.25 583.609 1093.93 582.303C1091.63 580.969 1089.82 579.127 1088.49 576.777C1087.15 574.427 1086.49 571.773 1086.49 568.814Z" fill="#FF6816"/>
<path d="M1152.08 556.891V567.03H1163.13V570.294H1152.08V580.737H1164.44V584H1148.12V553.628H1164.44V556.891H1152.08Z" fill="#FF6816"/>
</svg>
